<svg width="500" height="500" xmlns="http://www.w3.org/2000/svg" data-name="Layer 1">
 <title>customer-experience</title>

 <g>
  <title>Layer 1</title>
  <path stroke="null" style="vector-effect: non-scaling-stroke;" id="svg_1" d="m267.80308,61.79965l34.69001,2.94397l-26.60376,25.39176l8.08625,38.45563l-29.31265,-20.7918l-29.55524,20.7918l8.2884,-38.45563l-26.60376,-25.57576l34.69001,-2.75997l13.14015,-36.79965l13.18059,36.79965zm-143.49048,383.59034c0.76819,-26.86374 -0.56604,-27.27774 27.0485,-39.00763c16.1725,-6.94593 36.91372,-15.68585 51.79242,-26.21975c17.50673,18.39982 28.70618,39.51362 29.11049,65.22738l-107.95142,0zm94.97299,-90.57314c0.76819,-6.80794 -16.94069,-32.61369 -20.21562,-45.03357c-6.91374,-12.46588 -9.38005,-29.57772 -1.81941,-42.77959c2.99191,-5.24395 1.69811,-9.61391 1.69811,-16.78984c0,-71.89731 110.74117,-71.98931 110.74117,0c0,9.19991 -1.81941,10.9939 2.50674,18.12383c7.27762,12.00589 3.51752,30.35971 -2.62803,41.39961c-4.04312,13.01788 -22.39891,37.62764 -21.14554,45.03357c1.09164,36.79965 -69.46087,35.64966 -69.21829,0l0.08086,0.046zm165.76809,90.57314c-0.76819,-26.86374 0.56604,-27.27774 -27.0485,-39.00763c-16.1725,-6.94593 -36.91372,-15.68585 -51.79242,-26.21975c-17.50673,18.39982 -28.70618,39.51362 -29.11049,65.22738l107.95142,0zm116.84629,-242.92368l-21.30726,31.3257l15.12128,35.60366l-32.70888,-13.38587l-25.1078,27.59974l1.05121,-39.55962l-30.64688,-18.72182l33.35578,-11.26989l6.18598,-38.96163l19.52829,32.70569l34.48785,-5.33595l0.04043,0zm-94.60911,-124.19882l-4.64959,39.23763l28.74661,22.26379l-34.20483,6.85393l-9.86522,37.99564l-16.41508,-34.86767l-34.77087,1.19599l24.05659,-28.56573l-11.80592,-37.25964l31.33421,17.20384l27.49324,-24.28777l0.08086,0.23zm-402.29086,124.24481l34.48785,5.33595l19.56872,-32.70569l6.22641,38.91563l33.39621,11.08589l-30.64688,18.72182l1.05121,39.55962l-25.14823,-27.59974l-32.74931,13.38587l15.12128,-35.64966l-21.30726,-31.0497zm97.03498,-124.47481l27.49324,24.24177l31.33421,-17.20384l-11.72506,37.21365l24.25875,28.56573l-34.97302,-1.19599l-16.1725,34.86767l-9.74393,-37.99564l-34.28569,-7.03793l28.54446,-22.49379l-4.73046,-38.96163z"/>
 </g>
</svg>